<!--
  - Mageproxy Connector for Magento2.
  -
  - @package    Mageproxy_Connector
  - @copyright  Copyright (c) 2025 Iframe Co Ltd
  - @license    See LICENSE.txt for license details
  -->

<svg width="16" height="18" viewBox="0 0 16 18" fill="none" xmlns="http://www.w3.org/2000/svg">
    <path d="M6.71869 3.02534H13.9662L12.6566 4.33502C12.5679 4.42372 12.5209 4.53851 12.5209 4.65852C12.5209 4.77853 12.5679 4.89332 12.6566 4.98202C12.7453 5.07073 12.8548 5.11769 12.9801 5.11769C13.1053 5.11769 13.2149 5.07073 13.3036 4.98202L15.3907 2.8949C15.4429 2.8375 15.4846 2.76967 15.5055 2.68619L15.5159 2.62879C15.5264 2.54009 15.5159 2.46704 15.4898 2.39399L15.4742 2.36268C15.4742 2.35746 15.469 2.35746 15.469 2.35225V2.34703C15.4481 2.30529 15.422 2.27398 15.3907 2.24267L13.3036 0.155546C13.1262 -0.02186 12.834 -0.02186 12.6566 0.155546C12.4792 0.332951 12.4792 0.625149 12.6566 0.802555L13.9662 2.11223H6.71869C6.46823 2.11223 6.25952 2.31572 6.25952 2.57139C6.25952 2.82707 6.46823 3.02534 6.71869 3.02534Z" fill="#EA2088"/>
    <path d="M15.4742 14.8854C15.4742 14.8802 15.469 14.8802 15.469 14.875V14.8698C15.4481 14.8281 15.422 14.7967 15.3907 14.7654L13.3036 12.6783C13.1262 12.5009 12.834 12.5009 12.6566 12.6783C12.4792 12.8557 12.4792 13.1479 12.6566 13.3253L13.9662 14.635H6.71869C6.46823 14.635 6.25952 14.8385 6.25952 15.0942C6.25952 15.3498 6.46302 15.5533 6.71869 15.5533H13.9662L12.6566 16.863C12.5679 16.9517 12.5209 17.0665 12.5209 17.1865C12.5209 17.3065 12.5679 17.4213 12.6566 17.51C12.7453 17.5987 12.8548 17.6457 12.9801 17.6457C13.1053 17.6457 13.2149 17.5987 13.3036 17.51L15.3907 15.4229C15.4429 15.3655 15.4846 15.2977 15.5055 15.2142L15.5159 15.1568C15.5264 15.0681 15.5159 14.995 15.4898 14.922L15.4742 14.8854Z" fill="#EA2088"/>
    <path d="M0.979096 0.938233H3.06622C3.31668 0.938233 3.52539 0.734738 3.52539 0.479065C3.52539 0.223392 3.32189 0.0198975 3.06622 0.0198975H0.979096C0.728641 0.0198975 0.519928 0.223392 0.519928 0.479065C0.519928 0.734738 0.728641 0.938233 0.979096 0.938233Z" fill="#EA2088"/>
    <path d="M1.04694 2.56619C1.04694 2.81665 1.25043 3.02536 1.5061 3.02536H3.59323C3.84368 3.02536 4.0524 2.82187 4.0524 2.56619C4.0524 2.31052 3.8489 2.10703 3.59323 2.10703H1.5061C1.25043 2.11224 1.04694 2.31574 1.04694 2.56619Z" fill="#EA2088"/>
    <path d="M1.56871 4.65332C1.56871 4.90378 1.77221 5.11249 2.02788 5.11249H4.115C4.36546 5.11249 4.57417 4.90899 4.57417 4.65332C4.57417 4.39765 4.37068 4.19415 4.115 4.19415H2.02788C1.77221 4.19937 1.56871 4.40287 1.56871 4.65332Z" fill="#EA2088"/>
    <path d="M2.09048 6.74045C2.09048 6.9909 2.29398 7.19962 2.54965 7.19962H5.68034C5.9308 7.19962 6.13951 6.99612 6.13951 6.74045C6.13951 6.48477 5.93601 6.28128 5.68034 6.28128H2.54965C2.29398 6.2865 2.09048 6.48999 2.09048 6.74045Z" fill="#EA2088"/>
    <path d="M9.91721 10.9147C9.91721 11.0347 9.96418 11.1495 10.0529 11.2382C10.1416 11.3269 10.2512 11.3739 10.3764 11.3739C10.5016 11.3739 10.6112 11.3269 10.6999 11.2382L12.787 9.15106C12.8392 9.09367 12.8809 9.02584 12.9018 8.94235L12.9122 8.88496C12.9227 8.79625 12.9122 8.7232 12.8809 8.63972L12.8705 8.62407C12.8705 8.61885 12.8653 8.61885 12.8653 8.61363V8.60841C12.8444 8.56667 12.8183 8.53536 12.787 8.50405L10.6999 6.41693C10.5225 6.23952 10.2303 6.23952 10.0529 6.41693C9.87547 6.59433 9.87547 6.88653 10.0529 7.06394L11.3625 8.37361H4.10979C3.85933 8.37361 3.65062 8.5771 3.65062 8.83278C3.65062 9.08845 3.85411 9.29194 4.10979 9.29194H11.3573L10.0477 10.6016C9.96418 10.6799 9.91721 10.7947 9.91721 10.9147Z" fill="#EA2088"/>
    <path d="M5.67512 10.4607H2.54443C2.29398 10.4607 2.08527 10.6642 2.08527 10.9199C2.08527 11.1756 2.28876 11.3791 2.54443 11.3791H5.67512C5.92558 11.3791 6.13429 11.1756 6.13429 10.9199C6.13429 10.6642 5.9308 10.4607 5.67512 10.4607Z" fill="#EA2088"/>
    <path d="M4.10979 12.5479H2.02266C1.7722 12.5479 1.56349 12.7513 1.56349 13.007C1.56349 13.2627 1.76699 13.4662 2.02266 13.4662H4.10979C4.36024 13.4662 4.56895 13.2627 4.56895 13.007C4.56895 12.7513 4.36546 12.5479 4.10979 12.5479Z" fill="#EA2088"/>
    <path d="M3.58801 14.635H1.50089C1.25043 14.635 1.04172 14.8385 1.04172 15.0942C1.04172 15.3498 1.24521 15.5533 1.50089 15.5533H3.58801C3.83847 15.5533 4.04718 15.3498 4.04718 15.0942C4.04718 14.8385 3.84368 14.635 3.58801 14.635Z" fill="#EA2088"/>
    <path d="M3.06622 16.7221H0.979096C0.728641 16.7221 0.519928 16.9256 0.519928 17.1813C0.519928 17.437 0.723423 17.6405 0.979096 17.6405H3.06622C3.31668 17.6405 3.52539 17.437 3.52539 17.1813C3.52539 16.9256 3.32189 16.7221 3.06622 16.7221Z" fill="#EA2088"/>
</svg>
