<!--
  - Mageproxy Connector for Magento2.
  -
  - @package    Mageproxy_Connector
  - @copyright  Copyright (c) 2025 Iframe Co Ltd
  - @license    See LICENSE.txt for license details
  -->

<svg width="16" height="15" viewBox="0 0 16 15" fill="none" xmlns="http://www.w3.org/2000/svg">
<path d="M6.56499 2.64913H14.0793L12.7214 3.80267C12.6294 3.8808 12.5807 3.98191 12.5807 4.08761C12.5807 4.19331 12.6294 4.29442 12.7214 4.37255C12.8134 4.45067 12.927 4.49204 13.0568 4.49204C13.1866 4.49204 13.3002 4.45067 13.3922 4.37255L15.5561 2.53424C15.6102 2.48369 15.6535 2.42394 15.6752 2.35041L15.686 2.29986C15.6968 2.22173 15.686 2.15739 15.6589 2.09305L15.6427 2.06547C15.6427 2.06088 15.6373 2.06088 15.6373 2.05628V2.05169C15.6157 2.01492 15.5886 1.98734 15.5561 1.95977L13.3922 0.121464C13.2083 -0.0347915 12.9053 -0.0347915 12.7214 0.121464C12.5375 0.27772 12.5375 0.535083 12.7214 0.691339L14.0793 1.84488H6.56499C6.30532 1.84488 6.08893 2.02411 6.08893 2.2493C6.08893 2.4745 6.30532 2.64913 6.56499 2.64913Z" fill="white"/>
<path d="M15.6427 12.5726C15.6427 12.568 15.6373 12.568 15.6373 12.5634V12.5588C15.6157 12.5221 15.5886 12.4945 15.5561 12.4669L13.3922 10.6282C13.2083 10.4719 12.9053 10.4719 12.7214 10.6282C12.5375 10.7845 12.5375 11.0419 12.7214 11.1982L14.0793 12.352H6.56499C6.30532 12.352 6.08893 12.5313 6.08893 12.7565C6.08893 12.9817 6.29991 13.161 6.56499 13.161H14.0793L12.7214 14.3148C12.6294 14.3929 12.5807 14.494 12.5807 14.5998C12.5807 14.7055 12.6294 14.8066 12.7214 14.8848C12.8134 14.9629 12.927 15.0043 13.0568 15.0043C13.1866 15.0043 13.3002 14.9629 13.3922 14.8848L15.5561 13.0461C15.6102 12.9955 15.6535 12.9358 15.6752 12.8622L15.686 12.8117C15.6968 12.7335 15.686 12.6692 15.6589 12.6048L15.6427 12.5726Z" fill="white"/>
<path d="M1.31971 1.53566H4.18148C4.52489 1.53566 4.81107 1.31744 4.81107 1.04326C4.81107 0.769092 4.53205 0.550873 4.18148 0.550873H1.31971C0.976301 0.550873 0.690125 0.769092 0.690125 1.04326C0.690125 1.31744 0.976301 1.53566 1.31971 1.53566Z" fill="white"/>
<path d="M1.21118 3.20589C1.21118 3.47447 1.4902 3.69829 1.84077 3.69829H4.70254C5.04595 3.69829 5.33212 3.48007 5.33212 3.20589C5.33212 2.93172 5.0531 2.7135 4.70254 2.7135H1.84077C1.4902 2.7191 1.21118 2.93732 1.21118 3.20589Z" fill="white"/>
<path d="M1.72711 5.36849C1.72711 5.63707 2.00613 5.86088 2.3567 5.86088H5.21847C5.56188 5.86088 5.84806 5.64266 5.84806 5.36849C5.84806 5.09432 5.56903 4.8761 5.21847 4.8761H2.3567C2.00613 4.88169 1.72711 5.09991 1.72711 5.36849Z" fill="white"/>
<path d="M10.2849 9.47523C10.2849 9.58098 10.3336 9.68213 10.4256 9.76029C10.5176 9.83845 10.6312 9.87983 10.7611 9.87983C10.891 9.87983 11.0046 9.83845 11.0966 9.76029L13.2612 7.92122C13.3153 7.87065 13.3586 7.81088 13.3802 7.73732L13.3911 7.68674C13.4019 7.60858 13.3911 7.54421 13.3586 7.47065L13.3478 7.45686C13.3478 7.45226 13.3424 7.45226 13.3424 7.44766V7.44307C13.3207 7.40628 13.2937 7.3787 13.2612 7.35111L11.0966 5.51205C10.9126 5.35573 10.6096 5.35573 10.4256 5.51205C10.2416 5.66837 10.2416 5.92584 10.4256 6.08216L11.7839 7.23617H4.26186C4.0021 7.23617 3.78564 7.41548 3.78564 7.64076C3.78564 7.86605 3.99669 8.04536 4.26186 8.04536H11.7784L10.4202 9.19937C10.3336 9.26834 10.2849 9.36949 10.2849 9.47523Z" fill="white"/>
<path d="M5.21334 9.14148H2.35157C2.00816 9.14148 1.72198 9.3597 1.72198 9.63387C1.72198 9.90804 2.00101 10.1263 2.35157 10.1263H5.21334C5.55675 10.1263 5.84293 9.90804 5.84293 9.63387C5.84293 9.3597 5.5639 9.14148 5.21334 9.14148Z" fill="white"/>
<path d="M4.69741 11.3041H1.83564C1.49223 11.3041 1.20605 11.5223 1.20605 11.7965C1.20605 12.0706 1.48508 12.2889 1.83564 12.2889H4.69741C5.04082 12.2889 5.327 12.0706 5.327 11.7965C5.327 11.5223 5.04798 11.3041 4.69741 11.3041Z" fill="white"/>
<path d="M4.18148 13.4667H1.31971C0.976301 13.4667 0.690125 13.6849 0.690125 13.9591C0.690125 14.2333 0.969147 14.4515 1.31971 14.4515H4.18148C4.52489 14.4515 4.81107 14.2333 4.81107 13.9591C4.81107 13.6849 4.53205 13.4667 4.18148 13.4667Z" fill="white"/>
</svg>
